<?xml version="1.0" encoding="utf-8"?>
<!-- Generator: Adobe Illustrator 28.0.0, SVG Export Plug-In . SVG Version: 6.00 Build 0)  -->
<svg version="1.1" id="Layer_1" xmlns="http://www.w3.org/2000/svg" xmlns:xlink="http://www.w3.org/1999/xlink" x="0px" y="0px"
	 viewBox="0 0 64 64" style="enable-background:new 0 0 64 64;" xml:space="preserve">
<style type="text/css">
	.st0{fill:#902062;}
	.st1{fill:#FFFFFF;}
</style>
<g>
	<path class="st0" d="M32.1,64.1c0.3,0,0.6,0,0.9,0h-1.7C31.6,64.1,31.8,64.1,32.1,64.1z"/>
	<rect x="-0.1" y="-0.1" class="st0" width="64.2" height="64.2"/>
	<path class="st1" d="M49.8,25.9c2-8.4-3.5-11.5-13.7-11.5h-13c-0.7,0-1.3,0.5-1.5,1.1l-8.7,32.6h13l3.2-11.9
		c4.6,0.7,5.6,4.9,4.7,9.8l-0.4,2.1h13.3l0.4-1.6c1.4-6.5-1-11.5-7.2-13.4C44.6,32.2,48.8,30.1,49.8,25.9z M37.4,26.2
		c-0.8,2.8-2.1,4.3-5.3,4.3h-1.5l2.4-9.1h1.8C37.4,21.4,38,23.9,37.4,26.2z"/>
</g>
</svg>
